<svg xmlns="http://www.w3.org/2000/svg" viewBox="0 0 459.5 122.3"><defs><style>.a{fill:#fff;}.b{isolation:isolate;}</style></defs><title>Cru Scanlan Watermark White Outlines</title><path class="a" d="M56.7,35.2l4.1-6q2.3-3.5,4.2-6.7a34.6,34.6,0,0,0,2.7-5.8q.9-2.6-.3-3.5t-5.9-.1a35.9,35.9,0,0,0-8.7,5.3,97.8,97.8,0,0,0-10.4,9.5A161.2,161.2,0,0,0,31.5,40.5q-5.4,7-10.2,14.6a154.6,154.6,0,0,0-8.5,15.2A85.6,85.6,0,0,0,7.1,85.2,44,44,0,0,0,5.5,98.5c.1,3.3.7,5.6,1.9,6.8a9.2,9.2,0,0,0,4.4,2.6c1.8.5,4.5.1,7.9-1.3a87.8,87.8,0,0,0,11.4-5.8q6.2-3.7,13-8.4T56.9,83l10.7-8.6a71.1,71.1,0,0,0,6.7-6.1,83.8,83.8,0,0,1-5.8,6.3q-4,4-9.4,8.7T47.4,92.9q-6.3,5-12.7,9.2a124.3,124.3,0,0,1-12.3,7.3,41.6,41.6,0,0,1-10.7,4A7.2,7.2,0,0,1,6,112.3a12.1,12.1,0,0,1-4.1-5.4,27,27,0,0,1-1.8-12,63,63,0,0,1,2.8-15A105.7,105.7,0,0,1,9.5,63.6a160.8,160.8,0,0,1,9.4-16.4A145.2,145.2,0,0,1,30.3,32.1,111.2,111.2,0,0,1,42.7,19.6a63,63,0,0,1,12.6-8.5A25.7,25.7,0,0,1,67.2,8c3.6.1,4.5,1.1,5.2,2.7a9.2,9.2,0,0,1,.2,5.9,32.7,32.7,0,0,1-3,7.6q-2.2,4.1-4.6,7.7t-4.6,6.4l-2.9,3.6a3.5,3.5,0,0,1-1.3-.6,2.4,2.4,0,0,1-1-1.3,3.6,3.6,0,0,1,0-2A7.9,7.9,0,0,1,56.7,35.2Z" transform="translate(0 0)"/><path class="a" d="M75.5,66.7a14.5,14.5,0,0,0-.5,1.7l-.6,2.2a30.7,30.7,0,0,1,5.7-4.2,18.1,18.1,0,0,1,5.3-2,5.4,5.4,0,0,1,3.8.5A4.2,4.2,0,0,1,91,68.2,25.6,25.6,0,0,1,89.9,74a3.6,3.6,0,0,1-1,1.8c-.3.2-.5-.6-.7-2.3s-1-3.7-2-4.2a4,4,0,0,0-3.8.3,19.1,19.1,0,0,0-7,5.9,39.6,39.6,0,0,0-4.6,7.7,36.4,36.4,0,0,1-3.3,6.3q-1.7,2.3-3.8.8-.3-.3.1-1.3a28.5,28.5,0,0,1,1.1-2.7A70.6,70.6,0,0,0,68.7,75q1.5-6.1,2.6-11.4c0-.2.3-.2.8-.2a4.3,4.3,0,0,1,1.7.5,4.8,4.8,0,0,1,1.5,1.2A1.9,1.9,0,0,1,75.5,66.7Z" transform="translate(0 0)"/><path class="a" d="M101.1,70c-.6,1.3-1.2,2.8-1.8,4.4L97.6,79a26.6,26.6,0,0,0-1.1,3.8q-.3,1.7.2,2t2.9-.8a27,27,0,0,0,3.6-4.1q1.9-2.6,3.9-5.8l3.9-6a35.9,35.9,0,0,1,3.5-4.5c1.1-1.2,2-1.7,2.8-1.5a3.3,3.3,0,0,1,2,3.1,24.4,24.4,0,0,1-.8,5.7q-.8,3.2-1.8,6.4a16.6,16.6,0,0,0-.8,5.1,1.9,1.9,0,0,0,1.8,2h.1c1.2.1,3.5-1,6.6-3.1a97.5,97.5,0,0,0,8.6-6.6,65.5,65.5,0,0,0,6.7-6.4,50.9,50.9,0,0,1-4.2,5q-3.2,3.5-7,7.3a72.6,72.6,0,0,1-8,6.6q-4,2.9-6.8,2.9a2.3,2.3,0,0,1-2.3-1.5,10.4,10.4,0,0,1-.6-4,36.8,36.8,0,0,1,.3-5.3l1-6a29.7,29.7,0,0,1-3.2,5.5,47.4,47.4,0,0,1-4.4,5.3,35.2,35.2,0,0,1-4.7,4.1,8.1,8.1,0,0,1-3.9,1.7c-1.8.1-3.1-.1-3.9-1a5.5,5.5,0,0,1-1.1-3.7,19.3,19.3,0,0,1,1-5.4q.9-3,2.1-6.1T96.1,68l1.8-4.2c.4-.9.9-1.3,1.6-1.1A2.3,2.3,0,0,1,101,64a6.4,6.4,0,0,1,.7,2.7A6.7,6.7,0,0,1,101.1,70Z" transform="translate(0 0)"/><path class="a" d="M204.4,39.2c.4-.5,3-1.1,5.2-2.1s4.7-2.1,7.2-3.5l7.8-4.5a56.4,56.4,0,0,0,6.8-4.9,20.8,20.8,0,0,0,4.4-4.9,5,5,0,0,0,.7-4.5c-.7-1.7-2.3-2.7-4.9-2.9a31.1,31.1,0,0,0-8.3.7,54.2,54.2,0,0,0-8.9,2.6,42.3,42.3,0,0,0-6.5,3q-9.3,5.7-12.9,10.4t-2.9,8.9q.7,4.2,5.1,8.1a71.6,71.6,0,0,0,11.4,7.9l7.8,4.8a59.5,59.5,0,0,1,7,5.1,24.2,24.2,0,0,1,5,5.6,12,12,0,0,1,1.7,6.3,16,16,0,0,1-2.3,7.7,38.4,38.4,0,0,1-7.6,9,45.4,45.4,0,0,1-8.8,6.3,64.8,64.8,0,0,1-22.4,7.5,42.4,42.4,0,0,1-11,.2,24.6,24.6,0,0,1-9.2-2.9,14.4,14.4,0,0,1-6-6.5,13.9,13.9,0,0,1-1.3-8,19.3,19.3,0,0,1,2.9-7.8,28.4,28.4,0,0,1,6-6.7,33.6,33.6,0,0,1,7.8-4.9,54.9,54.9,0,0,1,17.4-4.4q9.1-.8,17.7-.8l-8.7.4q-4.4.2-8.9.8a81.8,81.8,0,0,0-8.7,1.7,47,47,0,0,0-8.4,2.9,30.7,30.7,0,0,0-7.2,4.7,24.2,24.2,0,0,0-5.2,6.2,16.6,16.6,0,0,0-2.2,7.1,13.1,13.1,0,0,0,1.7,7.3,13.6,13.6,0,0,0,5.7,5.7,23.2,23.2,0,0,0,8.4,2.4,37.6,37.6,0,0,0,10.1-.4,60.5,60.5,0,0,0,10.5-2.7,63.5,63.5,0,0,0,9.9-4.5,36.8,36.8,0,0,0,8-5.9q5.3-5.1,6.7-9.1a10.1,10.1,0,0,0,.2-7.2,13.2,13.2,0,0,0-4.6-5.7,62,62,0,0,0-7.5-4.8l-8.6-4.5a50.4,50.4,0,0,1-7.9-4.8q-7.4-5.4-9.3-11.1a16,16,0,0,1,.6-11.4,30.7,30.7,0,0,1,8.3-10.8,64.7,64.7,0,0,1,13.9-9.1A52.4,52.4,0,0,1,215.3,9a49.7,49.7,0,0,1,6.3-1.9,41.7,41.7,0,0,1,6.5-.9,17.7,17.7,0,0,1,6,.6,9.2,9.2,0,0,1,4.5,2.8,9,9,0,0,1,2,5.4,12.4,12.4,0,0,1-1.5,7,23.8,23.8,0,0,1-4.8,6,44.3,44.3,0,0,1-6.8,5.1q-3.9,2.4-7.8,4.3l-2.6,1.2a46.2,46.2,0,0,1-5.6,2.1,16.5,16.5,0,0,1-5.2.9C204.7,41.6,203.9,39.8,204.4,39.2Z" transform="translate(0 0)"/><path class="a" d="M257.4,68a7.8,7.8,0,0,0-5.7-1.1,10,10,0,0,0-4.8,2.5,14.8,14.8,0,0,0-3.3,4.5,10.9,10.9,0,0,0-1.2,5,5.5,5.5,0,0,0,1.6,3.9c1,1,2.7,1.5,4.9,1.3s6-1.7,10.3-4.1a153.8,153.8,0,0,0,16.6-11.2l-6.1,5.8a98.8,98.8,0,0,1-7.8,6.7,58.5,58.5,0,0,1-8.4,5.4,13.6,13.6,0,0,1-7.8,1.8,8.3,8.3,0,0,1-5.7-2.7,9.6,9.6,0,0,1-2.2-5.5,16.3,16.3,0,0,1,.9-6.6,20.1,20.1,0,0,1,3.4-6.2,15.3,15.3,0,0,1,5.5-4.3,11.8,11.8,0,0,1,7.1-.8,5,5,0,0,1,3.1,1.3,3,3,0,0,1,.7,1.8,2.7,2.7,0,0,1-.5,1.6Z" transform="translate(0 0)"/><path class="a" d="M317.3,68.5a52.9,52.9,0,0,1-4.5,4.6l-6.9,6.2a75.8,75.8,0,0,1-7.6,5.7,18.7,18.7,0,0,1-6.8,3,3.8,3.8,0,0,1-4.3-1.7q-1.4-2.2,0-8.6l-4.5,4.2-4.2,3.5a27.9,27.9,0,0,1-3.6,2.3,4.8,4.8,0,0,1-2.6.7,3.7,3.7,0,0,1-3.7-3.2,13.8,13.8,0,0,1,.7-6.6A31.8,31.8,0,0,1,273,71a25.7,25.7,0,0,1,5.5-6.2,9.1,9.1,0,0,1,5.9-2.3q2.9.1,4.9,4l2.8-3.2a8.1,8.1,0,0,1,2.9-2.5,1.8,1.8,0,0,1,1.2-.1,1.6,1.6,0,0,1,1,1.1q.3.4-.6,2.4l-2.1,4.7-2.4,5.6a25.2,25.2,0,0,0-1.5,5.2,5,5,0,0,0,.4,3.5c.5.8,1.7.9,3.4.3a29.2,29.2,0,0,0,5.7-2.8l6.6-4.3,6.1-4.5Zm-31.4,2.2q-.9-4.3-2.7-3.9t-3.7,3.1a36.4,36.4,0,0,0-3.4,6.4,28.8,28.8,0,0,0-2,6.1l3.3-2.3a48.4,48.4,0,0,0,4.1-3.3,34.8,34.8,0,0,0,3.4-3.4q1.4-1.6,1-2.8Z" transform="translate(0 0)"/><path class="a" d="M322,67.2c-.6,1.4-1.3,2.7-1.8,3.8l-1.4,3.1,5.4-5.9a28.2,28.2,0,0,1,5.2-4.3,5.9,5.9,0,0,1,4.1-1.1q1.7.4,2.3,3.6a16.3,16.3,0,0,1-.1,3.2,31.6,31.6,0,0,1-.7,4l-1,4.3c-.4,1.4-.8,2.8-1.1,4a22.4,22.4,0,0,1-.8,2.9,1.5,1.5,0,0,0,0,1.5c.2.3.7.3,1.3,0l3.3-1.5a48.8,48.8,0,0,0,5.4-3.4l6-4.4,5.6-4.4,4.4-3.6-3.2,3.1L350,76.7l-5.8,5.1-5.9,4.7L333.1,90a9.4,9.4,0,0,1-3.5,1.5c-1.2.1-1.9-.6-1.9-2.1a21.9,21.9,0,0,1,.5-5.3q.6-3.1,1.5-6.5a38.3,38.3,0,0,0,1.1-5.6c.2-1.4-.1-2.3-.7-2.5s-1.9.6-3.9,2.5l-3.5,3.8-3.6,4.5-3.6,4.3-3,3.7q-.5.7-1.6,0a2.2,2.2,0,0,1-.8-2.5,52.9,52.9,0,0,1,3-10.5q2.4-6.2,5.4-13.2c.1-.3.4-.4.9-.4a2.7,2.7,0,0,1,1.6.6,3.5,3.5,0,0,1,1.2,1.8A4.4,4.4,0,0,1,322,67.2Z" transform="translate(0 0)"/><path class="a" d="M379.7,4A10,10,0,0,1,382.6.8a4.6,4.6,0,0,1,2.6-.8,2,2,0,0,1,1.7,1.2,5.3,5.3,0,0,1,.4,3,51.5,51.5,0,0,1-3,10.3q-2.5,6.8-6.1,15.1t-8,17.4q-4.4,9.1-8.7,17.5l-.9,2-1.3,3.1a69.9,69.9,0,0,0-1.9,7.5,27.7,27.7,0,0,0-.5,7.8,16.6,16.6,0,0,0,2.1,6.9,12,12,0,0,0,5.8,4.9,13.2,13.2,0,0,0,2.7.9l3,.4-4,.2a13.4,13.4,0,0,1-4.1-.9q-5.9-2.1-8-6.1a19.8,19.8,0,0,1-2.2-9,52.4,52.4,0,0,1,1.4-11.4q1.5-6.9,4-14.7t5.6-16q3.1-8.2,6.2-15.3t5.8-12.6A86.3,86.3,0,0,1,379.7,4ZM364.3,50q2.6-4.7,5.7-11.3t5.9-13q2.8-6.5,4.8-11.9a55.1,55.1,0,0,0,2.4-7.9q-1.5,2.7-4,8.3L374,26.3q-2.8,6.5-5.4,12.9Z" transform="translate(0 0)"/><path class="a" d="M418.6,70.4,414.1,75a71.7,71.7,0,0,1-7,6.1,75.8,75.8,0,0,1-7.7,5.6,18.7,18.7,0,0,1-6.8,2.9,3.8,3.8,0,0,1-4.3-1.7q-1.3-2.2.1-8.6l-4.5,4.1-4.2,3.4a27.9,27.9,0,0,1-3.6,2.3,4.8,4.8,0,0,1-2.7.7c-2.1-.3-3.3-1.3-3.6-3.2a13.8,13.8,0,0,1,.8-6.6,31.8,31.8,0,0,1,3.8-7.6,25.7,25.7,0,0,1,5.6-6.1,9.1,9.1,0,0,1,5.9-2.2q2.9.1,4.8,4.1l2.6-3.3a8.1,8.1,0,0,1,3-2.5,1.8,1.8,0,0,1,1.2-.1,1.6,1.6,0,0,1,1,1.1q.3.4-.7,2.4l-2.2,4.7q-1.3,2.7-2.4,5.6a25.2,25.2,0,0,0-1.6,5.2,5,5,0,0,0,.4,3.5c.5.8,1.7.9,3.4.3a29.2,29.2,0,0,0,5.7-2.7l6.6-4.2,6.2-4.4Zm-31.4,1.8q-.8-4.4-2.6-3.9a7.7,7.7,0,0,0-3.7,3,36.4,36.4,0,0,0-3.6,6.4,28.8,28.8,0,0,0-2.1,6.1l3.3-2.2a48.4,48.4,0,0,0,4.2-3.2,34.8,34.8,0,0,0,3.4-3.3q1.5-1.8,1.1-3Z" transform="translate(0 0)"/><path class="a" d="M423.3,69.2c-.6,1.4-1.4,2.7-1.8,3.8l-1.4,3.1q2.7-3.1,5.5-5.8a28.2,28.2,0,0,1,5.2-4.2,5.9,5.9,0,0,1,4.1-1.1q1.7.4,2.3,3.7a16.3,16.3,0,0,1-.2,3.2q-.3,1.9-.7,4t-1,4.2l-1.2,4c-.3,1.2-.6,2.2-.8,2.9s-.3,1.2,0,1.5.7.3,1.3,0l3.3-1.5a48.8,48.8,0,0,0,5.4-3.3l6.1-4.3,5.7-4.4,4.4-3.5-3.3,3.1-5,4.5-5.9,5-6,4.6-5.2,3.5a9.4,9.4,0,0,1-3.5,1.5c-1.2.1-1.9-.7-1.9-2.2a21.9,21.9,0,0,1,.6-5.3q.7-3.1,1.6-6.5a38.3,38.3,0,0,0,1.2-5.6c.2-1.4,0-2.3-.7-2.5s-1.9.6-3.9,2.5L424,77.9l-3.8,4.4-3.6,4.2-3.1,3.6q-.5.6-1.6,0a2.2,2.2,0,0,1-.8-2.5,52.9,52.9,0,0,1,3.3-10.4q2.5-6.2,5.6-13.1c.1-.3.4-.4.9-.4a2.7,2.7,0,0,1,1.6.6,3.5,3.5,0,0,1,1.1,1.8A4.4,4.4,0,0,1,423.3,69.2Z" transform="translate(0 0)"/><path class="a" d="M33.6,107.6c0-.5.5-.8.8-1l1.2-.6,2.6-.8,5.3-1.2,10.7-1.6c7.2-.9,14.4-1.6,21.6-2.3,14.4-1.2,28.9-2.1,43.3-2.9,28.9-1.6,57.8-2.5,86.8-3.2s57.9-1.1,86.8-1.1h43.4l43.4.6-86.8,1.6-86.8,1.8c-29,.7-57.8,1.5-86.7,2.5-14.4.5-28.9,1.2-43.3,2.1-7.2.4-14.4.9-21.6,1.6-3.6.3-7.2.7-10.8,1.3l-5.3.9-2.6.7-1.2.5C34.1,106.8,33.6,107.1,33.6,107.6Z" transform="translate(0 0)"/><g class="b"><path class="a" d="M236.3,121.9h-1.9V102.6h4.2c3.4,0,5.3,1.8,5.3,5.1s-2,5.6-4.7,5.6h-2.9Zm0-10.3H239c1.8,0,2.8-1.4,2.8-3.8s-1.2-3.4-3.3-3.4h-2.2Z" transform="translate(0 0)"/><path class="a" d="M250.8,106.8h1.9v6.2h6v-6.2h1.9v15.1h-1.9v-7.1h-6v7.1h-1.9Z" transform="translate(0 0)"/><path class="a" d="M278.4,114.4c0,1.2-.1,7.8-5.3,7.8-2.4,0-5.3-1.7-5.3-7.8s2.9-7.8,5.3-7.8S278.4,108.3,278.4,114.4Zm-8.7,0c0,2.2.4,6,3.3,6s3.3-3.8,3.3-6-.4-6-3.3-6S269.8,112.2,269.8,114.4Z" transform="translate(0 0)"/><path class="a" d="M289.5,108.6h-4.2v-1.7h10.2v1.7h-4.1v13.3h-1.9Z" transform="translate(0 0)"/><path class="a" d="M313.1,114.4c0,1.2-.1,7.8-5.3,7.8-2.4,0-5.3-1.7-5.3-7.8s2.9-7.8,5.3-7.8S313.1,108.3,313.1,114.4Zm-8.7,0c0,2.2.4,6,3.3,6s3.3-3.8,3.3-6-.4-6-3.3-6S304.5,112.2,304.5,114.4Z" transform="translate(0 0)"/><path class="a" d="M330.2,120.5a8.1,8.1,0,0,1-4.6,1.6c-4.4,0-5.7-4.1-5.7-7.8s1.3-7.8,5.6-7.8a5.7,5.7,0,0,1,4.8,2.9l-1.6,1.1a3.9,3.9,0,0,0-3.3-2.1c-3,0-3.5,3.7-3.5,6s.5,5.9,3.6,5.9a5.3,5.3,0,0,0,2.8-.8v-4h-3.6v-1.7h5.6Z" transform="translate(0 0)"/><path class="a" d="M338.1,106.8h5.1c2.5,0,4.5,1.2,4.5,4.1a4.5,4.5,0,0,1-3.1,4.2l3.7,6.1-1.7,1-3.8-6.8h-2.8v6.4h-1.9Zm4.5,6.9c1.9,0,3.1-1.1,3.1-2.8a2.3,2.3,0,0,0-2.5-2.4h-3.1v5.1Z" transform="translate(0 0)"/><path class="a" d="M357.2,117.8l-1.4,4.5-1.9-.7,4.7-14.7h2.5l4.7,14.7-1.9.7-1.4-4.5Zm2.7-8.7-2.1,7H362Z" transform="translate(0 0)"/><path class="a" d="M375.1,121.9h-1.9V106.8h4.7c3.5,0,4.9,1.9,4.9,4.1a4.2,4.2,0,0,1-4.4,4.5h-3.2Zm2.7-8.2c1.9,0,2.9-.9,2.9-2.6s-1.3-2.5-2.9-2.5h-2.7v5.1Z" transform="translate(0 0)"/><path class="a" d="M389.6,106.8h1.9v6.2h6v-6.2h1.9v15.1h-1.9v-7.1h-6v7.1h-1.9Z" transform="translate(0 0)"/><path class="a" d="M415.9,106.5l1.8,1-4.9,8.7v5.8h-1.9v-5.8l-4.9-8.7,1.8-1,4,7.7Z" transform="translate(0 0)"/></g></svg>